<?xml version="1.0" encoding="utf-8"?>
<!-- Generator: Adobe Illustrator 26.0.1, SVG Export Plug-In . SVG Version: 6.00 Build 0)  -->
<svg version="1.1" id="Layer_1" xmlns="http://www.w3.org/2000/svg" xmlns:xlink="http://www.w3.org/1999/xlink" x="0px" y="0px"
	 viewBox="0 0 1080 1350" style="enable-background:new 0 0 1080 1350;" xml:space="preserve">
<style type="text/css">
	.st0{fill:#FFFFFF;}
	.st1{stroke:#000000;stroke-width:4;stroke-miterlimit:10;}
</style>
<g>
	<path d="M734.21,966.3H378.91c-57.93,0-104.88-46.96-104.88-104.88V506.11c0-57.93,46.96-104.88,104.88-104.88h355.31
		c57.93,0,104.88,46.96,104.88,104.88v355.31C839.1,919.34,792.14,966.3,734.21,966.3z"/>
	<path class="st0" d="M695.74,817.61c6.27,1.57,10.59,5.61,12.26,11.59c2.86,10.18-4.05,19.34-13.65,20.41
		c-6.18,0.69-11.32-1.51-14.97-6.19c-4.34-5.56-4.74-15.24,1.41-20.64c1.59-1.39,3.41-2.56,5.23-3.64c1.45-0.86,2.23-1.87,1.93-3.61
		c-0.61-3.52-1.08-7.06-1.76-10.56c-0.66-3.39-1.47-6.75-2.32-10.09c-1.18-4.64-1.95-9.38-4.21-13.73
		c-1.36-2.61-1.95-5.61-3.09-8.35c-1.92-4.61-3.87-9.22-6.08-13.7c-1.86-3.78-3.96-7.47-6.21-11.03c-3.69-5.85-7.4-11.72-12.2-16.76
		c-4.4-4.63-8.72-9.35-13.42-13.66c-5.73-5.25-12.05-9.8-18.84-13.63c-3.44-1.94-6.94-3.79-10.5-5.49
		c-2.75-1.31-5.69-2.22-8.44-3.52c-6.1-2.9-12.69-4.14-19.19-5.36c-7.14-1.33-14.46-2.3-21.71-2.34
		c-39.62-0.23-79.24-0.12-118.87-0.13c-0.81,0-1.63-0.04-2.43,0.07c-2.1,0.27-2.53,0.72-2.58,2.9c-0.06,2.88-0.02,5.76-0.02,8.9
		c-10.64,0-20.99,0-31.63,0c0-10.5,0-20.97,0-31.47c2.32-0.76,24.22-1.05,31.28-0.36c0.85,3.63-0.08,7.47,0.63,11.54
		c1.19,0.15,2.4,0.44,3.61,0.44c24.91,0.02,49.82,0.02,74.73-0.01c0.95,0,1.9-0.2,2.86-0.86c-3.15-1.43-6.29-2.86-9.44-4.27
		c-6.46-2.89-12.4-6.64-18.34-10.47c-4.98-3.22-9.76-6.67-14.06-10.7c-4.79-4.49-9.54-9.08-13.77-14.07
		c-4.77-5.63-9.21-11.56-12.98-17.97c-4.39-7.46-8.06-15.23-11.63-23.12c-2.9-6.41-4.45-13.15-6.85-19.66
		c-0.98-2.66-1.12-5.62-1.72-8.43c-0.49-2.34-1.2-4.63-1.61-6.98c-0.58-3.29-0.94-6.62-1.45-9.92c-0.37-2.38-1.35-4.13-3.8-5.28
		c-9.02-4.25-11.05-11.68-8.76-20c1.53-5.58,6-9.55,12.04-10.55c8.08-1.34,14.07,1.82,17.63,9.52c3.07,6.64,1.67,12.61-3.91,18.15
		c-1.24,1.23-2.94,2.05-4.55,2.83c-1.36,0.66-1.86,1.55-1.72,3.01c0.58,6.08,1.27,12.15,2.96,18.04c2.17,7.57,3.92,15.31,6.72,22.65
		c3.28,8.59,6.92,17.1,12.16,24.79c2.38,3.49,4.12,7.45,6.73,10.72c4.76,5.95,9.65,11.87,15.07,17.21
		c4.93,4.86,10.19,9.42,16.02,13.34c5.75,3.86,11.78,7.07,17.9,10.28c7.87,4.13,16.22,6.44,24.76,8.4
		c3.88,0.89,7.74,1.88,11.63,2.77c0.78,0.18,1.61,0.19,2.42,0.2c5.79,0.13,11.58,0.35,17.37,0.36c34.99,0.03,69.98,0.01,104.97,0
		c1.47,0,2.95-0.16,4.84-0.27c0-4.01,0-7.76,0-11.73c10.92,0,21.4,0,31.86,0c0.74,2.77,0.83,28.3,0.09,31.95
		c-10.44,0-20.92,0-31.83,0c0-3.79,0-7.43,0-11.32c-1.61-0.23-2.83-0.56-4.06-0.57c-21.9-0.04-43.79-0.04-65.69-0.02
		c-1.05,0-2.1,0.28-3.15,0.43c0,0.23-0.01,0.45-0.01,0.68c1.34,0.61,2.63,1.33,4.01,1.81c7.55,2.65,14.43,6.74,21.09,10.95
		c4.93,3.11,10.02,6.34,13.97,10.96c1.81,2.12,4.66,3.31,6.58,5.36c3.96,4.23,8.04,8.32,11.7,12.87c4.93,6.14,9.2,12.63,13.25,19.32
		c1.94,3.21,3.43,6.69,5.22,10.01c3.97,7.36,6.78,15.15,8.94,23.2c0.38,1.41,1.2,2.7,1.56,4.11c1.78,7.02,3.65,14.01,4.32,21.26
		C694.32,811.23,695.12,814.27,695.74,817.61z M411.41,691.69c6.05,0,11.63,0,17.63,0c0.02-5.9,0.34-11.57-0.27-17.69
		c-5.34,0-10.39-0.02-15.44,0.01c-1.21,0.01-1.92,0.7-1.92,1.97C411.4,681.05,411.41,686.11,411.41,691.69z M683.79,674.27
		c-0.13,6.03-0.12,11.62-0.03,17.53c6.08,0.13,11.67,0.16,17.56,0.02c0.01-6.1,0.23-11.69-0.16-17.55
		C695.31,674.27,689.83,674.27,683.79,674.27z M428.38,541.37c2.14,0.23,4.48-0.41,5.88-2.27c1.39-1.84,2.9-4.23,2.85-6.34
		c-0.05-2.27-1.5-4.78-2.98-6.68c-1.31-1.68-3.59-2.2-5.92-2.15c-5.1,0.1-9.15,4.02-8.94,8.84
		C419.5,537.81,423.13,541.35,428.38,541.37z M683.83,833.64c0,5.28,3.52,8.81,8.56,9.01c4.03,0.16,9.18-4.39,8.98-8.85
		c-0.19-4.25-3.61-8.52-8.84-8.6C687.33,825.14,683.22,829.21,683.83,833.64z"/>
</g>
</svg>
