<?xml version="1.0" encoding="utf-8"?>
<!-- Generator: Adobe Illustrator 26.0.1, SVG Export Plug-In . SVG Version: 6.00 Build 0)  -->
<svg version="1.1" id="Layer_1" xmlns="http://www.w3.org/2000/svg" xmlns:xlink="http://www.w3.org/1999/xlink" x="0px" y="0px"
	 viewBox="0 0 1068.79 906.43" style="enable-background:new 0 0 1068.79 906.43;" xml:space="preserve">
<style type="text/css">
	.st0{fill:#FFFFFF;}
	.st1{fill:#FFFFFF;stroke:#FFFFFF;stroke-width:4;stroke-miterlimit:10;}
	.st2{font-family:'Montserrat-Medium';}
	.st3{font-size:36px;}
	.st4{letter-spacing:5;}
</style>
<rect x="-11.21" width="1089.29" height="906.43"/>
<path class="st0" d="M696.49,428.46c6.27,1.57,10.59,5.61,12.26,11.59c2.86,10.18-4.05,19.34-13.65,20.41
	c-6.18,0.69-11.32-1.51-14.97-6.19c-4.34-5.56-4.74-15.24,1.41-20.64c1.59-1.39,3.41-2.56,5.23-3.64c1.45-0.86,2.23-1.87,1.93-3.61
	c-0.61-3.52-1.08-7.06-1.76-10.56c-0.66-3.39-1.47-6.75-2.32-10.09c-1.18-4.64-1.95-9.38-4.21-13.73c-1.36-2.61-1.95-5.61-3.09-8.35
	c-1.92-4.61-3.87-9.22-6.08-13.7c-1.86-3.78-3.96-7.47-6.21-11.03c-3.69-5.85-7.4-11.72-12.2-16.76c-4.4-4.63-8.72-9.35-13.42-13.66
	c-5.73-5.25-12.05-9.8-18.84-13.63c-3.44-1.94-6.94-3.79-10.5-5.49c-2.75-1.31-5.69-2.22-8.44-3.52c-6.1-2.9-12.69-4.14-19.19-5.36
	c-7.14-1.33-14.46-2.3-21.71-2.34c-39.62-0.23-79.24-0.12-118.87-0.13c-0.81,0-1.63-0.04-2.43,0.07c-2.1,0.27-2.53,0.72-2.58,2.9
	c-0.06,2.88-0.02,5.76-0.02,8.9c-10.64,0-20.99,0-31.63,0c0-10.5,0-20.97,0-31.47c2.32-0.76,24.22-1.05,31.28-0.36
	c0.85,3.63-0.08,7.47,0.63,11.54c1.19,0.15,2.4,0.44,3.61,0.44c24.91,0.02,49.82,0.02,74.73-0.01c0.95,0,1.9-0.2,2.86-0.86
	c-3.15-1.43-6.29-2.86-9.44-4.27c-6.46-2.89-12.4-6.64-18.34-10.47c-4.98-3.22-9.76-6.67-14.06-10.7
	c-4.79-4.49-9.54-9.08-13.77-14.07c-4.77-5.63-9.21-11.56-12.98-17.97c-4.39-7.46-8.06-15.23-11.63-23.12
	c-2.9-6.41-4.45-13.15-6.85-19.66c-0.98-2.66-1.12-5.62-1.72-8.43c-0.49-2.34-1.2-4.63-1.61-6.98c-0.58-3.29-0.94-6.62-1.45-9.92
	c-0.37-2.38-1.35-4.13-3.8-5.28c-9.02-4.25-11.05-11.68-8.76-20c1.53-5.58,6-9.55,12.04-10.55c8.08-1.34,14.07,1.82,17.63,9.52
	c3.07,6.64,1.67,12.61-3.91,18.15c-1.24,1.23-2.94,2.05-4.55,2.83c-1.36,0.66-1.86,1.55-1.72,3.01c0.58,6.08,1.27,12.15,2.96,18.04
	c2.17,7.57,3.92,15.31,6.72,22.65c3.28,8.59,6.92,17.1,12.16,24.79c2.38,3.49,4.12,7.45,6.73,10.72
	c4.76,5.95,9.65,11.87,15.07,17.21c4.93,4.86,10.19,9.42,16.02,13.34c5.75,3.86,11.78,7.07,17.9,10.28
	c7.87,4.13,16.22,6.44,24.76,8.4c3.88,0.89,7.74,1.88,11.63,2.77c0.78,0.18,1.61,0.19,2.42,0.2c5.79,0.13,11.58,0.35,17.37,0.36
	c34.99,0.03,69.98,0.01,104.96,0c1.47,0,2.95-0.16,4.84-0.27c0-4.01,0-7.76,0-11.73c10.92,0,21.4,0,31.86,0
	c0.74,2.77,0.83,28.3,0.09,31.95c-10.44,0-20.92,0-31.83,0c0-3.79,0-7.43,0-11.32c-1.61-0.23-2.83-0.56-4.06-0.57
	c-21.9-0.04-43.79-0.04-65.69-0.02c-1.05,0-2.1,0.28-3.15,0.43c0,0.23-0.01,0.45-0.01,0.68c1.34,0.61,2.63,1.33,4.01,1.81
	c7.55,2.65,14.43,6.74,21.09,10.95c4.93,3.11,10.02,6.34,13.97,10.96c1.81,2.12,4.66,3.31,6.58,5.36c3.96,4.23,8.04,8.32,11.7,12.87
	c4.93,6.14,9.2,12.63,13.25,19.32c1.94,3.21,3.43,6.69,5.22,10.01c3.97,7.36,6.78,15.15,8.94,23.2c0.38,1.41,1.2,2.7,1.56,4.11
	c1.78,7.02,3.65,14.01,4.32,21.26C695.07,422.09,695.87,425.12,696.49,428.46z M412.16,302.54c6.05,0,11.63,0,17.63,0
	c0.02-5.9,0.34-11.57-0.27-17.69c-5.34,0-10.39-0.02-15.44,0.01c-1.21,0.01-1.92,0.7-1.92,1.97
	C412.16,291.9,412.16,296.97,412.16,302.54z M684.55,285.13c-0.13,6.03-0.12,11.62-0.03,17.53c6.08,0.13,11.67,0.16,17.56,0.02
	c0.01-6.1,0.23-11.69-0.16-17.55C696.06,285.13,690.59,285.13,684.55,285.13z M429.13,152.22c2.14,0.23,4.48-0.41,5.88-2.27
	c1.39-1.84,2.9-4.23,2.85-6.34c-0.05-2.27-1.5-4.78-2.98-6.68c-1.31-1.68-3.59-2.2-5.92-2.15c-5.1,0.1-9.15,4.02-8.94,8.84
	C420.25,148.66,423.88,152.2,429.13,152.22z M684.58,444.5c0,5.28,3.52,8.81,8.56,9.01c4.03,0.16,9.18-4.39,8.98-8.85
	c-0.19-4.25-3.61-8.52-8.84-8.6C688.08,435.99,683.98,440.06,684.58,444.5z"/>
<path class="st1" d="M201.46,505.02c8.6,3.04,16.39,9.04,22.16,16.96c8.52,11.68,16.07,24.06,23.98,36.18
	c1.9,2.91,3.58,5.97,5.78,9.67c1.88-3.73,3.46-6.77,4.96-9.85c5.11-10.47,10.19-20.96,15.27-31.44c3.46-7.14,3.45-7.15,11.87-5.82
	c-5.6-0.69-5.87,2.64-5.85,6.59c0.09,16.34-0.06,32.68,0.16,49.02c0.03,2.3,1.63,4.58,2.46,6.75c-2.77,0-6.9,0-10.35,0
	c1.09-1.64,3.35-3.46,3.38-5.32c0.28-16.43,0.16-32.87,0.16-50.83c-1.4,2.33-2.1,3.33-2.63,4.41c-5.53,11.38-10.95,22.81-16.6,34.12
	c-1.34,2.68-1.34,4.65,0.35,7.26c9.36,14.49,15.8,20.5,31.64,28.44c-11.59-2.37-20.34-7.97-26.84-16.06
	c-7.89-9.82-14.75-20.5-21.61-31.1c-5.57-8.61-10.47-17.66-15.67-26.52c-0.43,0.1-0.87,0.21-1.3,0.31c0,2.22,0,4.45,0,6.67
	c0,14.01-0.12,28.02,0.12,42.02c0.04,2.22,1.7,4.42,2.56,6.51c-1.95,0-5.21,0-8.46,0c4.27-0.61,4.37-3.77,4.37-6.97
	c0.01-16.17,0.08-32.35-0.09-48.52c-0.02-1.95-0.86-4.4-2.2-5.74C213.22,515.85,207.04,510.26,201.46,505.02z"/>
<path class="st1" d="M316.18,582.87c-4.24,0-8.49,0-11.21,0c1.59-1.91,4.44-4.2,5.79-7.17c7.79-17.12,15.22-34.4,22.78-51.61
	c0.64-1.46,1.39-2.88,2.63-5.46c1.25,2.36,2.05,3.67,2.68,5.07c4.28,9.57,8.65,19.11,12.71,28.78c1.16,2.76,2.63,3.69,5.53,3.56
	c4.99-0.23,9.99,0,14.99-0.08c10.52-0.17,18.46-7.47,18.57-16.98c0.12-10.1-7.83-17.77-18.75-17.94c-6.83-0.1-13.66-0.01-20.49,0
	c-1.56,0-3.12,0-4.66-0.19c10.58,0,21.26-0.85,31.73,0.24c10.27,1.08,16.35,8.2,16.88,16.83c0.47,7.72-5.08,14.65-14.52,18.13
	c-0.58,0.21-1.12,0.53-2.89,1.38c13.85,3.83,16.2,17.18,24.32,25.27c-4.84,1.66-7.94,0.09-9.58-4.99c-0.8-2.5-2.36-4.76-3.65-7.09
	c-5.07-9.09-12.36-14.14-23.23-13.05c-3.6,0.36-7.27,0.06-12.28,0.06c5.62,8.83,5.64,19.7,14.84,25.15c-3.44,0-7.61,0-10.99,0
	c0.26-1.71,1.29-3.87,0.71-5.41c-2.23-5.91-4.85-11.68-7.64-17.36c-0.56-1.14-2.48-2.23-3.8-2.27c-7.82-0.21-15.66-0.21-23.48,0.01
	c-1.27,0.04-3.07,1.27-3.65,2.44c-2.49,5.07-4.64,10.32-6.88,15.51C311.08,579.39,311.05,582.33,316.18,582.87z M321.3,555.78
	c9.51,0,18.22,0,27.53,0c-4.57-10.27-8.98-20.18-13.85-31.1C330.22,535.51,325.86,545.41,321.3,555.78z"/>
<path class="st1" d="M697.02,576.14c-11.64,11.81-31.11,14.63-46.58,6.23c-7.79-4.23-14.52-10.41-21.72-15.72
	c-5.46-4.02-10.78-8.27-16.45-11.98c-2.06-1.35-4.96-1.42-8.22-2.26c0,9.19-0.28,17.63,0.23,26.03c0.1,1.69,3.2,3.2,4.58,4.48
	c-4.38,0-9.62,0-14.86,0c6.58-0.02,5.77-4.7,5.76-8.94c-0.03-15.83,0.07-31.66-0.12-47.49c-0.03-2.16-1.38-4.3-2.46-7.42
	c10.24,0.79,21.63,0.82,32.68,2.77c8.66,1.53,13.47,9.53,12.68,17.32c-0.88,8.7-6.87,14.78-15.84,16.02
	c-1.62,0.22-3.26,0.31-5.79,0.54c14.5,10.69,25.81,24.94,44.57,27.64c10.85,1.56,20.85,0.06,29.91-6.37
	C695.91,576.65,696.49,576.42,697.02,576.14z M604.14,550.82c5.59,0.94,10.64,1.88,15.72,2.61c7.41,1.07,14.71-3.5,17.24-10.64
	c2.69-7.6,0.04-14.55-7.19-18.67c-8.18-4.66-16.99-2.67-25.77-2.99C604.14,531.4,604.14,541,604.14,550.82z"/>
<path class="st1" d="M791.32,520.78c12.38,0,23.97-1.11,35.26,0.27c15.36,1.89,24.84,16.93,23.39,34.39
	c-1.26,15.2-13.77,27.42-28.54,27.65c-9.65,0.15-19.31,0.03-29.22-0.24c4.33-1.34,4.89-4.49,4.87-8.29
	c-0.11-15.51-0.09-31.02-0.03-46.52C797.07,524.41,796.6,521.32,791.32,520.78z M801.53,521.25c0,18.93,0,37.24,0,55.56
	c0,3.24,1.64,5.06,4.84,5.08c5.32,0.04,10.68,0.23,15.95-0.3c9.41-0.95,15.87-6.27,19.8-14.77c4.6-9.96,4.47-20.02,0.25-30
	c-3.8-8.99-10.56-14.6-20.37-15.46C815.44,520.79,808.78,521.25,801.53,521.25z"/>
<path class="st1" d="M762.22,520.09c3.95,0,7.91,0,11.86,0c-4.76,0.91-5.39,4.11-5.35,8.31c0.18,17,0.1,34,0.1,51
	c0,1.45-0.12,2.89-1.33,4.97c-14.59-19.2-29.19-38.39-44.28-58.24c-0.33,1.69-0.7,2.69-0.7,3.69c-0.04,15.33-0.02,30.67-0.04,46
	c0,3.14,0.1,6.16,4.28,6.95c-3.31,0-6.62,0-8.85,0c0.84-2.01,2.7-4.44,2.74-6.9c0.26-16.16,0.04-32.33,0.2-48.5
	c0.04-4-1.24-6.37-6.37-6.69c6.67-1.87,10.53-0.36,14.19,4.72c11.09,15.4,22.81,30.36,34.29,45.48c0.99,1.3,2.03,2.55,3.61,4.54
	c0.27-1.99,0.57-3.19,0.58-4.39c0.03-14.33-0.01-28.67,0.03-43C767.21,524.3,767,520.85,762.22,520.09z"/>
<path class="st1" d="M561.54,547.45c2.14,0.73,4.21,1.24,6.12,2.12c7.38,3.4,11.33,10.5,10.28,18.25
	c-1.03,7.62-7.7,14.4-16.55,14.93c-11.4,0.68-22.87,0.17-34.58-0.16c4.38-0.17,4.83-3,4.82-6.25c-0.03-16.51-0.05-33.03,0.01-49.54
	c0.01-3.69-0.99-6.26-5.25-6.69c10.49,0,21.01-0.42,31.47,0.15c6.79,0.37,11,5,12.26,11.32c1.22,6.12-1.24,10.93-7.55,14.79
	C562.19,546.62,561.92,547.05,561.54,547.45z M535.86,549.21c0,9.76-0.16,19.53,0.19,29.28c0.05,1.26,2.65,3.37,4.18,3.46
	c6.12,0.37,12.29,0.4,18.41,0.01c8.43-0.54,14.53-7.27,14.95-15.84c0.4-8.22-4.71-15.92-12.51-16.72
	C552.93,548.55,544.62,549.21,535.86,549.21z M535.96,547c6.94,0,13.42,0.26,19.87-0.08c5.87-0.3,10.2-5.47,10.7-11.94
	c0.48-6.22-3.23-12.77-8.85-13.38c-7.15-0.77-14.45-0.19-21.71-0.19C535.96,530.01,535.96,538.16,535.96,547z"/>
<path class="st1" d="M907.91,523.09c0,3.23,0,7.32,0,11.41c-2.18-5.51-5.15-10.66-10.85-12.21c-5.11-1.39-10.79-1.71-16.07-1.13
	c-6.19,0.68-10.2,5.44-10.51,10.41c-0.31,4.97,2.21,8.68,8.42,11.03c7.76,2.94,15.96,4.85,23.52,8.21
	c13.12,5.83,14.56,22.09,2.48,29.51c-4.4,2.7-10.39,4.17-15.55,3.93c-5.75-0.27-11.46-2.89-17.03-4.94
	c-3.56-1.31-6.69-2.97-8.35,2.25c0-5.98,0-11.96,0-19.5c1.06,2.61,1.59,3.86,2.07,5.13c4.78,12.56,19.57,19.09,32.14,14.17
	c6.19-2.43,9.66-7.04,10.11-13.62c0.42-6.2-2.66-10.65-8.24-13c-5.19-2.19-10.65-3.72-15.93-5.71c-3.57-1.35-7.27-2.59-10.47-4.58
	c-7.97-4.95-8.31-16.06-0.66-21.5c7.9-5.61,16.57-5,25.36-2.35C901.33,521.49,904.37,522.17,907.91,523.09z"/>
<path class="st1" d="M474.24,531.64c-16.91-14.02-32.61-15.16-46.08-3.34c-9.99,8.76-11.7,25.91-3.87,38.62
	c9.17,14.87,25.26,18.12,46.17,9.34c-3.28,3.75-8.07,5.98-15.97,7.42c-13.2,2.41-28.45-4.61-34.62-15.94
	c-6.97-12.78-5.25-28.62,4.18-38.63c9.31-9.89,26.18-12.99,40.4-7.38c2.32,0.91,4.8,1.74,6.72,3.23c1.87,1.45,3.13,3.71,4.65,5.61
	C475.29,530.91,474.76,531.27,474.24,531.64z"/>
<path class="st1" d="M696.39,567.98c-2.76,0-6.24,0-9.83,0c0.71-1.09,2.16-2.4,1.91-3.07c-1.93-5.12-4.15-10.14-6.4-15.13
	c-0.18-0.4-1.16-0.63-1.77-0.63c-6.16-0.05-12.33-0.13-18.49,0.07c-0.96,0.03-2.23,1.24-2.74,2.23c-1.53,2.95-2.88,6.01-4.07,9.11
	c-1.82,4.71-1.44,5.39,3.75,7.37c-4.79,0-9.06,0-11.89,0c1.67-1.88,4.62-4.01,5.97-6.9c5.88-12.5,11.29-25.21,16.89-37.84
	c0.67-1.5,1.39-2.98,2.5-5.36c1.08,2.26,1.85,3.77,2.54,5.32c5.7,12.77,11.31,25.57,17.13,38.28
	C692.99,563.78,694.87,565.8,696.39,567.98z M681.24,547.53c-3.51-7.94-6.66-15.06-10.28-23.25c-3.67,8.4-6.85,15.68-10.17,23.25
	C667.87,547.53,674.11,547.53,681.24,547.53z"/>
<text transform="matrix(1 0 0 1 305.7144 653.286)" class="st0 st2 st3 st4">EVERYTHING BEYOND</text>
</svg>
