<?xml version="1.0" encoding="utf-8"?>
<!-- Generator: Adobe Illustrator 26.0.1, SVG Export Plug-In . SVG Version: 6.00 Build 0)  -->
<svg version="1.1" id="Layer_1" xmlns="http://www.w3.org/2000/svg" xmlns:xlink="http://www.w3.org/1999/xlink" x="0px" y="0px"
	 viewBox="0 0 1068.79 906.43" style="enable-background:new 0 0 1068.79 906.43;" xml:space="preserve">
<style type="text/css">
	.st0{fill:#FFFFFF;}
	.st1{fill:#FFFFFF;stroke:#FFFFFF;stroke-width:4;stroke-miterlimit:10;}
</style>
<path class="st0" d="M833.5,719.81c13.48,3.37,22.74,12.06,26.34,24.88c6.14,21.86-8.7,41.53-29.31,43.83
	c-13.28,1.48-24.31-3.23-32.15-13.29c-9.31-11.94-10.18-32.74,3.02-44.34c3.41-2.99,7.31-5.5,11.23-7.82
	c3.12-1.85,4.79-4.01,4.15-7.76c-1.3-7.56-2.31-15.17-3.79-22.69c-1.43-7.27-3.16-14.49-4.98-21.67
	c-2.53-9.96-4.18-20.14-9.04-29.49c-2.91-5.61-4.18-12.05-6.63-17.93c-4.13-9.9-8.31-19.81-13.05-29.43
	c-4-8.12-8.5-16.04-13.34-23.7c-7.93-12.57-15.9-25.17-26.2-36.01c-9.45-9.94-18.74-20.09-28.83-29.34
	c-12.31-11.28-25.89-21.05-40.47-29.28c-7.38-4.17-14.9-8.13-22.54-11.8c-5.9-2.82-12.22-4.76-18.13-7.56
	c-13.09-6.22-27.25-8.9-41.22-11.51c-15.33-2.87-31.06-4.94-46.63-5.03c-85.1-0.49-170.2-0.27-255.29-0.28
	c-1.74,0-3.5-0.08-5.22,0.15c-4.51,0.59-5.44,1.54-5.54,6.23c-0.14,6.18-0.03,12.37-0.03,19.11c-22.85,0-45.09,0-67.93,0
	c0-22.55,0-45.04,0-67.58c4.98-1.63,52.02-2.25,67.18-0.77c1.83,7.79-0.17,16.04,1.36,24.79c2.56,0.33,5.16,0.94,7.75,0.95
	c53.5,0.05,107,0.03,160.49-0.01c2.04,0,4.08-0.43,6.14-1.85c-6.76-3.06-13.5-6.15-20.27-9.18c-13.88-6.2-26.64-14.26-39.39-22.49
	c-10.7-6.91-20.96-14.32-30.19-22.97c-10.28-9.64-20.48-19.49-29.57-30.23c-10.24-12.1-19.78-24.83-27.87-38.59
	c-9.43-16.03-17.32-32.7-24.98-49.65c-6.22-13.77-9.56-28.25-14.72-42.22c-2.11-5.71-2.41-12.07-3.69-18.11
	c-1.06-5.02-2.58-9.95-3.46-15c-1.24-7.07-2.01-14.21-3.11-21.3c-0.79-5.12-2.91-8.87-8.17-11.35
	c-19.38-9.13-23.73-25.08-18.82-42.94c3.29-11.98,12.89-20.5,25.86-22.66c17.36-2.88,30.22,3.91,37.87,20.44
	c6.59,14.25,3.58,27.07-8.4,38.98c-2.66,2.64-6.32,4.4-9.76,6.08c-2.93,1.42-3.99,3.32-3.69,6.46c1.24,13.06,2.73,26.09,6.36,38.75
	c4.67,16.27,8.43,32.89,14.44,48.65c7.03,18.46,14.85,36.73,26.12,53.25c5.11,7.49,8.84,16,14.46,23.03
	c10.23,12.79,20.73,25.5,32.37,36.97c10.59,10.44,21.88,20.24,34.41,28.65c12.35,8.29,25.31,15.19,38.44,22.08
	c16.91,8.87,34.84,13.84,53.18,18.05c8.34,1.91,16.63,4.03,24.97,5.95c1.68,0.39,3.46,0.4,5.19,0.44
	c12.44,0.29,24.88,0.76,37.31,0.77c75.15,0.06,150.29,0.03,225.44-0.01c3.16,0,6.33-0.35,10.39-0.59c0-8.6,0-16.67,0-25.2
	c23.45,0,45.96,0,68.42,0c1.6,5.96,1.78,60.78,0.19,68.62c-22.42,0-44.94,0-68.37,0c0-8.13,0-15.95,0-24.31
	c-3.45-0.5-6.08-1.21-8.71-1.22c-47.03-0.08-94.06-0.08-141.08-0.04c-2.26,0-4.52,0.61-6.77,0.93c-0.01,0.49-0.02,0.97-0.03,1.46
	c2.87,1.31,5.65,2.85,8.62,3.89c16.22,5.69,30.99,14.47,45.3,23.51c10.6,6.69,21.52,13.62,30,23.54
	c3.88,4.54,10.02,7.11,14.14,11.51c8.5,9.07,17.26,17.86,25.12,27.65c10.58,13.18,19.77,27.13,28.45,41.49
	c4.17,6.9,7.37,14.38,11.21,21.49c8.53,15.8,14.56,32.53,19.2,49.82c0.81,3.02,2.57,5.8,3.34,8.83c3.82,15.07,7.85,30.08,9.28,45.67
	C830.46,706.11,832.18,712.63,833.5,719.81z M222.83,449.36c12.99,0,24.99,0,37.87,0c0.05-12.66,0.74-24.86-0.58-38
	c-11.48,0-22.32-0.04-33.16,0.03c-2.6,0.02-4.12,1.51-4.12,4.23C222.83,426.51,222.83,437.39,222.83,449.36z M807.85,411.96
	c-0.27,12.95-0.26,24.96-0.07,37.65c13.06,0.28,25.07,0.34,37.72,0.03c0.02-13.11,0.49-25.11-0.34-37.69
	C832.58,411.96,820.82,411.96,807.85,411.96z M259.28,126.51c4.59,0.48,9.63-0.88,12.64-4.88c2.98-3.96,6.23-9.08,6.13-13.62
	c-0.1-4.88-3.22-10.26-6.4-14.35c-2.8-3.61-7.72-4.72-12.71-4.62c-10.94,0.22-19.65,8.62-19.2,18.98
	C240.21,118.87,248.01,126.48,259.28,126.51z M807.92,754.25c-0.01,11.34,7.56,18.93,18.39,19.35c8.65,0.34,19.72-9.42,19.28-19
	c-0.41-9.13-7.75-18.3-18.98-18.46C815.45,735.97,806.62,744.72,807.92,754.25z"/>
</svg>
